<svg width="1280" height="360" viewBox="0 0 1280 360" fill="none" xmlns="http://www.w3.org/2000/svg">
<path d="M580.545 106.614V48.4319H594V52.8865H585.636V102.159H594V106.614H580.545Z" fill="#32C572"/>
<path d="M620.52 92.1592V88.9272L624.84 87.1672V68.5752C624.84 64.5112 622.728 63.1032 619.912 63.1032C617.704 63.1032 614.696 63.8072 611.272 65.6952V87.2312L615.496 88.9272V92.1592H601V88.9272L605.32 87.1672V65.2472L599.72 64.3832V60.8312L610.088 58.4312L610.92 58.7832V62.4632C615.112 59.8072 618.952 58.2712 622.696 58.2712C628.168 58.2712 630.792 61.3752 630.792 67.3272V87.2312L635.016 88.9272V92.1592H620.52Z" fill="#2A2D3F"/>
<path d="M652.636 48.4319V106.614H639.182V102.159H647.545V52.8865H639.182V48.4319H652.636ZM667.733 106.614V48.4319H681.188V52.8865H672.824V102.159H681.188V106.614H667.733ZM699.011 48.4319V106.614H685.557V102.159H693.92V52.8865H685.557V48.4319H699.011Z" fill="#32C572"/>
<path d="M585.858 138.886H594.221V143.341H580.767V120.841H585.858V138.886Z" fill="#32C572"/>
<path d="M652.858 143.341H639.403V138.886H647.767V120.841H652.858V143.341Z" fill="#32C572"/>
<path d="M673.045 138.886H681.408V143.341H667.954V120.841H673.045V138.886Z" fill="#32C572"/>
<path d="M699.233 143.341H685.778V138.886H694.142V120.841H699.233V143.341Z" fill="#32C572"/>
<path d="M594.221 119.613H585.858L585.858 120.841H580.767L580.767 115.159H594.221V119.613Z" fill="#32C572"/>
<path d="M652.858 120.841H647.767L647.767 119.613H639.403V115.159H652.858L652.858 120.841Z" fill="#32C572"/>
<path d="M681.409 119.613H673.046L673.045 120.841H667.954L667.955 115.159H681.409V119.613Z" fill="#32C572"/>
<path d="M699.233 120.841H694.142L694.142 119.613H685.778V115.159H699.233L699.233 120.841Z" fill="#32C572"/>
<path d="M505.92 239V237.6L507.8 237.32C508.227 237.24 508.507 237.08 508.64 236.84C508.773 236.573 508.84 236.093 508.84 235.4V222.84C508.84 221.907 508.76 221.28 508.6 220.96C508.44 220.64 508.067 220.453 507.48 220.4L505.56 220.16L505.76 218.76L512.12 218.32L512.48 218.6L512.64 222.32H512.72C513.387 220.96 514.347 219.907 515.6 219.16C516.853 218.413 518.2 218.04 519.64 218.04C521.053 218.04 522.24 218.307 523.2 218.84C524.16 219.347 524.88 220.12 525.36 221.16C525.84 222.173 526.08 223.427 526.08 224.92V235.68C526.08 236.293 526.16 236.707 526.32 236.92C526.48 237.133 526.813 237.28 527.32 237.36L529.12 237.6V239H519.08V237.64L520.76 237.4C521.267 237.293 521.587 237.133 521.72 236.92C521.88 236.707 521.96 236.307 521.96 235.72V225.56C521.96 224.307 521.84 223.32 521.6 222.6C521.36 221.853 520.96 221.32 520.4 221C519.867 220.68 519.12 220.52 518.16 220.52C517.147 220.52 516.24 220.747 515.44 221.2C514.667 221.627 514.053 222.253 513.6 223.08C513.173 223.88 512.96 224.84 512.96 225.96V235.56C512.96 236.147 513.027 236.56 513.16 236.8C513.293 237.04 513.56 237.2 513.96 237.28L515.96 237.64V239H505.92ZM551.656 239.56C549.656 239.56 547.909 239.147 546.416 238.32C544.949 237.467 543.816 236.28 543.016 234.76C542.216 233.213 541.816 231.373 541.816 229.24C541.816 226.893 542.242 224.893 543.096 223.24C543.949 221.56 545.149 220.28 546.696 219.4C548.269 218.493 550.109 218.04 552.216 218.04C554.162 218.04 555.856 218.453 557.296 219.28C558.736 220.08 559.842 221.253 560.616 222.8C561.416 224.32 561.816 226.147 561.816 228.28C561.816 230.573 561.389 232.573 560.536 234.28C559.709 235.96 558.536 237.267 557.016 238.2C555.496 239.107 553.709 239.56 551.656 239.56ZM552.256 237.72C553.349 237.72 554.269 237.413 555.016 236.8C555.789 236.187 556.362 235.253 556.736 234C557.109 232.747 557.296 231.147 557.296 229.2C557.296 227.653 557.162 226.293 556.896 225.12C556.656 223.92 556.282 222.933 555.776 222.16C555.269 221.387 554.656 220.813 553.936 220.44C553.242 220.04 552.442 219.84 551.536 219.84C550.416 219.84 549.469 220.133 548.696 220.72C547.922 221.28 547.322 222.173 546.896 223.4C546.496 224.6 546.296 226.147 546.296 228.04C546.296 230.2 546.536 232 547.016 233.44C547.522 234.853 548.216 235.92 549.096 236.64C549.976 237.36 551.029 237.72 552.256 237.72ZM575.139 239V237.6L577.019 237.28C577.445 237.2 577.725 237.04 577.859 236.8C577.992 236.533 578.059 236.053 578.059 235.36V222.88C578.059 221.947 577.979 221.32 577.819 221C577.659 220.653 577.285 220.453 576.699 220.4L574.779 220.2L574.979 218.76L581.259 218.32L581.619 218.6L581.899 222.36H581.979C582.645 220.973 583.499 219.907 584.539 219.16C585.579 218.413 586.699 218.04 587.899 218.04C589.179 218.04 590.192 218.387 590.939 219.08C591.685 219.747 592.059 220.64 592.059 221.76C592.059 222.427 591.952 223 591.739 223.48C591.552 223.933 591.245 224.293 590.819 224.56C590.419 224.8 589.912 224.92 589.299 224.92C588.499 224.92 587.885 224.747 587.459 224.4C587.059 224.053 586.859 223.613 586.859 223.08C586.859 222.84 586.899 222.6 586.979 222.36C587.059 222.12 587.179 221.84 587.339 221.52C587.499 221.2 587.699 220.84 587.939 220.44C587.325 220.2 586.672 220.173 585.979 220.36C585.312 220.547 584.685 220.92 584.099 221.48C583.539 222.013 583.072 222.693 582.699 223.52C582.352 224.32 582.179 225.187 582.179 226.12V235.44C582.179 236.08 582.245 236.52 582.379 236.76C582.512 236.973 582.792 237.107 583.219 237.16L586.539 237.6V239H575.139ZM604.076 239V237.56L606.236 237.24C606.716 237.187 607.022 237.027 607.156 236.76C607.289 236.493 607.356 236 607.356 235.28V222.96C607.356 222 607.276 221.36 607.116 221.04C606.956 220.72 606.569 220.52 605.956 220.44L604.076 220.24L604.236 218.76L611.116 218.44L611.516 218.64V235.44C611.516 236 611.582 236.427 611.716 236.72C611.849 236.987 612.169 237.16 612.676 237.24L614.836 237.6V239H604.076ZM608.876 214.28C608.049 214.28 607.369 214.027 606.836 213.52C606.302 213.013 606.036 212.347 606.036 211.52C606.036 210.72 606.302 210.067 606.836 209.56C607.369 209.027 608.049 208.76 608.876 208.76C609.756 208.76 610.449 209.013 610.956 209.52C611.489 210.027 611.756 210.693 611.756 211.52C611.756 212.32 611.489 212.987 610.956 213.52C610.422 214.027 609.729 214.28 608.876 214.28ZM630.251 239.52L629.251 239.28V212.68C629.251 211.8 629.171 211.2 629.011 210.88C628.851 210.533 628.398 210.32 627.651 210.24L625.891 210.04L626.051 208.56L633.011 208.36L633.411 208.68V221.56L633.451 221.72C633.984 220.84 634.571 220.133 635.211 219.6C635.878 219.04 636.611 218.64 637.411 218.4C638.238 218.16 639.118 218.04 640.051 218.04C641.704 218.04 643.118 218.427 644.291 219.2C645.491 219.973 646.411 221.093 647.051 222.56C647.691 224.027 648.011 225.853 648.011 228.04C648.011 230.44 647.638 232.507 646.891 234.24C646.144 235.947 645.051 237.267 643.611 238.2C642.198 239.107 640.478 239.56 638.451 239.56C637.331 239.56 636.264 239.4 635.251 239.08C634.238 238.787 633.331 238.36 632.531 237.8L630.251 239.52ZM638.131 237.68C639.278 237.68 640.251 237.373 641.051 236.76C641.878 236.12 642.504 235.147 642.931 233.84C643.358 232.507 643.571 230.8 643.571 228.72C643.571 226.8 643.384 225.24 643.011 224.04C642.638 222.813 642.078 221.907 641.331 221.32C640.611 220.733 639.691 220.44 638.571 220.44C637.531 220.44 636.611 220.667 635.811 221.12C635.038 221.547 634.438 222.173 634.011 223C633.611 223.827 633.411 224.84 633.411 226.04V235.84C633.998 236.373 634.691 236.813 635.491 237.16C636.318 237.507 637.198 237.68 638.131 237.68ZM671.178 239.56C669.258 239.56 667.578 239.147 666.138 238.32C664.725 237.493 663.632 236.307 662.858 234.76C662.085 233.187 661.698 231.32 661.698 229.16C661.698 226.84 662.112 224.853 662.938 223.2C663.765 221.52 664.925 220.24 666.418 219.36C667.912 218.48 669.645 218.04 671.618 218.04C673.112 218.04 674.418 218.333 675.538 218.92C676.658 219.507 677.525 220.347 678.138 221.44C678.778 222.507 679.098 223.773 679.098 225.24C679.098 225.747 679.058 226.267 678.978 226.8C678.925 227.333 678.845 227.893 678.738 228.48H666.138C666.138 230.24 666.392 231.72 666.898 232.92C667.432 234.093 668.165 234.987 669.098 235.6C670.032 236.187 671.125 236.48 672.378 236.48C673.472 236.48 674.498 236.28 675.458 235.88C676.445 235.48 677.392 234.853 678.298 234L679.338 235C678.352 236.52 677.152 237.667 675.738 238.44C674.352 239.187 672.832 239.56 671.178 239.56ZM666.138 226.8H674.858C674.885 226.533 674.898 226.24 674.898 225.92C674.925 225.6 674.938 225.267 674.938 224.92C674.938 223.053 674.632 221.707 674.018 220.88C673.405 220.053 672.472 219.64 671.218 219.64C670.232 219.64 669.378 219.893 668.658 220.4C667.965 220.907 667.405 221.693 666.978 222.76C666.552 223.8 666.272 225.147 666.138 226.8ZM692.326 239V237.6L694.206 237.32C694.633 237.24 694.913 237.08 695.046 236.84C695.18 236.573 695.246 236.093 695.246 235.4V222.84C695.246 221.907 695.166 221.28 695.006 220.96C694.846 220.64 694.473 220.453 693.886 220.4L691.966 220.16L692.166 218.76L698.526 218.32L698.886 218.6L699.046 222.32H699.126C699.793 220.96 700.753 219.907 702.006 219.16C703.26 218.413 704.606 218.04 706.046 218.04C707.46 218.04 708.646 218.307 709.606 218.84C710.566 219.347 711.286 220.12 711.766 221.16C712.246 222.173 712.486 223.427 712.486 224.92V235.68C712.486 236.293 712.566 236.707 712.726 236.92C712.886 237.133 713.22 237.28 713.726 237.36L715.526 237.6V239H705.486V237.64L707.166 237.4C707.673 237.293 707.993 237.133 708.126 236.92C708.286 236.707 708.366 236.307 708.366 235.72V225.56C708.366 224.307 708.246 223.32 708.006 222.6C707.766 221.853 707.366 221.32 706.806 221C706.273 220.68 705.526 220.52 704.566 220.52C703.553 220.52 702.646 220.747 701.846 221.2C701.073 221.627 700.46 222.253 700.006 223.08C699.58 223.88 699.366 224.84 699.366 225.96V235.56C699.366 236.147 699.433 236.56 699.566 236.8C699.7 237.04 699.966 237.2 700.366 237.28L702.366 237.64V239H692.326ZM735.281 239.56C734.134 239.56 733.161 239.36 732.361 238.96C731.587 238.533 731.001 237.88 730.601 237C730.201 236.12 730.001 234.987 730.001 233.6V220.44H727.001V218.96C727.987 218.853 728.787 218.573 729.401 218.12C730.041 217.667 730.534 216.96 730.881 216C731.227 215.04 731.454 213.773 731.561 212.2L733.721 211.92L734.161 212.16V218.6H740.161V220.44H734.161V233.2C734.161 234.373 734.361 235.253 734.761 235.84C735.187 236.4 735.894 236.68 736.881 236.68C737.547 236.68 738.187 236.56 738.801 236.32C739.441 236.08 740.054 235.72 740.641 235.24L741.361 236.32C740.534 237.36 739.614 238.16 738.601 238.72C737.614 239.28 736.507 239.56 735.281 239.56ZM763.062 239.56C761.062 239.56 759.315 239.147 757.822 238.32C756.355 237.467 755.222 236.28 754.422 234.76C753.622 233.213 753.222 231.373 753.222 229.24C753.222 226.893 753.649 224.893 754.502 223.24C755.355 221.56 756.555 220.28 758.102 219.4C759.675 218.493 761.515 218.04 763.622 218.04C765.569 218.04 767.262 218.453 768.702 219.28C770.142 220.08 771.249 221.253 772.022 222.8C772.822 224.32 773.222 226.147 773.222 228.28C773.222 230.573 772.795 232.573 771.942 234.28C771.115 235.96 769.942 237.267 768.422 238.2C766.902 239.107 765.115 239.56 763.062 239.56ZM763.662 237.72C764.755 237.72 765.675 237.413 766.422 236.8C767.195 236.187 767.769 235.253 768.142 234C768.515 232.747 768.702 231.147 768.702 229.2C768.702 227.653 768.569 226.293 768.302 225.12C768.062 223.92 767.689 222.933 767.182 222.16C766.675 221.387 766.062 220.813 765.342 220.44C764.649 220.04 763.849 219.84 762.942 219.84C761.822 219.84 760.875 220.133 760.102 220.72C759.329 221.28 758.729 222.173 758.302 223.4C757.902 224.6 757.702 226.147 757.702 228.04C757.702 230.2 757.942 232 758.422 233.44C758.929 234.853 759.622 235.92 760.502 236.64C761.382 237.36 762.435 237.72 763.662 237.72Z" fill="#5C5F77"/>
<path d="M505.92 239V237.6L507.8 237.32C508.227 237.24 508.507 237.08 508.64 236.84C508.773 236.573 508.84 236.093 508.84 235.4V222.84C508.84 221.907 508.76 221.28 508.6 220.96C508.44 220.64 508.067 220.453 507.48 220.4L505.56 220.16L505.76 218.76L512.12 218.32L512.48 218.6L512.64 222.32H512.72C513.387 220.96 514.347 219.907 515.6 219.16C516.853 218.413 518.2 218.04 519.64 218.04C521.053 218.04 522.24 218.307 523.2 218.84C524.16 219.347 524.88 220.12 525.36 221.16C525.84 222.173 526.08 223.427 526.08 224.92V235.68C526.08 236.293 526.16 236.707 526.32 236.92C526.48 237.133 526.813 237.28 527.32 237.36L529.12 237.6V239H519.08V237.64L520.76 237.4C521.267 237.293 521.587 237.133 521.72 236.92C521.88 236.707 521.96 236.307 521.96 235.72V225.56C521.96 224.307 521.84 223.32 521.6 222.6C521.36 221.853 520.96 221.32 520.4 221C519.867 220.68 519.12 220.52 518.16 220.52C517.147 220.52 516.24 220.747 515.44 221.2C514.667 221.627 514.053 222.253 513.6 223.08C513.173 223.88 512.96 224.84 512.96 225.96V235.56C512.96 236.147 513.027 236.56 513.16 236.8C513.293 237.04 513.56 237.2 513.96 237.28L515.96 237.64V239H505.92ZM551.656 239.56C549.656 239.56 547.909 239.147 546.416 238.32C544.949 237.467 543.816 236.28 543.016 234.76C542.216 233.213 541.816 231.373 541.816 229.24C541.816 226.893 542.242 224.893 543.096 223.24C543.949 221.56 545.149 220.28 546.696 219.4C548.269 218.493 550.109 218.04 552.216 218.04C554.162 218.04 555.856 218.453 557.296 219.28C558.736 220.08 559.842 221.253 560.616 222.8C561.416 224.32 561.816 226.147 561.816 228.28C561.816 230.573 561.389 232.573 560.536 234.28C559.709 235.96 558.536 237.267 557.016 238.2C555.496 239.107 553.709 239.56 551.656 239.56ZM552.256 237.72C553.349 237.72 554.269 237.413 555.016 236.8C555.789 236.187 556.362 235.253 556.736 234C557.109 232.747 557.296 231.147 557.296 229.2C557.296 227.653 557.162 226.293 556.896 225.12C556.656 223.92 556.282 222.933 555.776 222.16C555.269 221.387 554.656 220.813 553.936 220.44C553.242 220.04 552.442 219.84 551.536 219.84C550.416 219.84 549.469 220.133 548.696 220.72C547.922 221.28 547.322 222.173 546.896 223.4C546.496 224.6 546.296 226.147 546.296 228.04C546.296 230.2 546.536 232 547.016 233.44C547.522 234.853 548.216 235.92 549.096 236.64C549.976 237.36 551.029 237.72 552.256 237.72ZM575.139 239V237.6L577.019 237.28C577.445 237.2 577.725 237.04 577.859 236.8C577.992 236.533 578.059 236.053 578.059 235.36V222.88C578.059 221.947 577.979 221.32 577.819 221C577.659 220.653 577.285 220.453 576.699 220.4L574.779 220.2L574.979 218.76L581.259 218.32L581.619 218.6L581.899 222.36H581.979C582.645 220.973 583.499 219.907 584.539 219.16C585.579 218.413 586.699 218.04 587.899 218.04C589.179 218.04 590.192 218.387 590.939 219.08C591.685 219.747 592.059 220.64 592.059 221.76C592.059 222.427 591.952 223 591.739 223.48C591.552 223.933 591.245 224.293 590.819 224.56C590.419 224.8 589.912 224.92 589.299 224.92C588.499 224.92 587.885 224.747 587.459 224.4C587.059 224.053 586.859 223.613 586.859 223.08C586.859 222.84 586.899 222.6 586.979 222.36C587.059 222.12 587.179 221.84 587.339 221.52C587.499 221.2 587.699 220.84 587.939 220.44C587.325 220.2 586.672 220.173 585.979 220.36C585.312 220.547 584.685 220.92 584.099 221.48C583.539 222.013 583.072 222.693 582.699 223.52C582.352 224.32 582.179 225.187 582.179 226.12V235.44C582.179 236.08 582.245 236.52 582.379 236.76C582.512 236.973 582.792 237.107 583.219 237.16L586.539 237.6V239H575.139ZM604.076 239V237.56L606.236 237.24C606.716 237.187 607.022 237.027 607.156 236.76C607.289 236.493 607.356 236 607.356 235.28V222.96C607.356 222 607.276 221.36 607.116 221.04C606.956 220.72 606.569 220.52 605.956 220.44L604.076 220.24L604.236 218.76L611.116 218.44L611.516 218.64V235.44C611.516 236 611.582 236.427 611.716 236.72C611.849 236.987 612.169 237.16 612.676 237.24L614.836 237.6V239H604.076ZM608.876 214.28C608.049 214.28 607.369 214.027 606.836 213.52C606.302 213.013 606.036 212.347 606.036 211.52C606.036 210.72 606.302 210.067 606.836 209.56C607.369 209.027 608.049 208.76 608.876 208.76C609.756 208.76 610.449 209.013 610.956 209.52C611.489 210.027 611.756 210.693 611.756 211.52C611.756 212.32 611.489 212.987 610.956 213.52C610.422 214.027 609.729 214.28 608.876 214.28ZM630.251 239.52L629.251 239.28V212.68C629.251 211.8 629.171 211.2 629.011 210.88C628.851 210.533 628.398 210.32 627.651 210.24L625.891 210.04L626.051 208.56L633.011 208.36L633.411 208.68V221.56L633.451 221.72C633.984 220.84 634.571 220.133 635.211 219.6C635.878 219.04 636.611 218.64 637.411 218.4C638.238 218.16 639.118 218.04 640.051 218.04C641.704 218.04 643.118 218.427 644.291 219.2C645.491 219.973 646.411 221.093 647.051 222.56C647.691 224.027 648.011 225.853 648.011 228.04C648.011 230.44 647.638 232.507 646.891 234.24C646.144 235.947 645.051 237.267 643.611 238.2C642.198 239.107 640.478 239.56 638.451 239.56C637.331 239.56 636.264 239.4 635.251 239.08C634.238 238.787 633.331 238.36 632.531 237.8L630.251 239.52ZM638.131 237.68C639.278 237.68 640.251 237.373 641.051 236.76C641.878 236.12 642.504 235.147 642.931 233.84C643.358 232.507 643.571 230.8 643.571 228.72C643.571 226.8 643.384 225.24 643.011 224.04C642.638 222.813 642.078 221.907 641.331 221.32C640.611 220.733 639.691 220.44 638.571 220.44C637.531 220.44 636.611 220.667 635.811 221.12C635.038 221.547 634.438 222.173 634.011 223C633.611 223.827 633.411 224.84 633.411 226.04V235.84C633.998 236.373 634.691 236.813 635.491 237.16C636.318 237.507 637.198 237.68 638.131 237.68ZM671.178 239.56C669.258 239.56 667.578 239.147 666.138 238.32C664.725 237.493 663.632 236.307 662.858 234.76C662.085 233.187 661.698 231.32 661.698 229.16C661.698 226.84 662.112 224.853 662.938 223.2C663.765 221.52 664.925 220.24 666.418 219.36C667.912 218.48 669.645 218.04 671.618 218.04C673.112 218.04 674.418 218.333 675.538 218.92C676.658 219.507 677.525 220.347 678.138 221.44C678.778 222.507 679.098 223.773 679.098 225.24C679.098 225.747 679.058 226.267 678.978 226.8C678.925 227.333 678.845 227.893 678.738 228.48H666.138C666.138 230.24 666.392 231.72 666.898 232.92C667.432 234.093 668.165 234.987 669.098 235.6C670.032 236.187 671.125 236.48 672.378 236.48C673.472 236.48 674.498 236.28 675.458 235.88C676.445 235.48 677.392 234.853 678.298 234L679.338 235C678.352 236.52 677.152 237.667 675.738 238.44C674.352 239.187 672.832 239.56 671.178 239.56ZM666.138 226.8H674.858C674.885 226.533 674.898 226.24 674.898 225.92C674.925 225.6 674.938 225.267 674.938 224.92C674.938 223.053 674.632 221.707 674.018 220.88C673.405 220.053 672.472 219.64 671.218 219.64C670.232 219.64 669.378 219.893 668.658 220.4C667.965 220.907 667.405 221.693 666.978 222.76C666.552 223.8 666.272 225.147 666.138 226.8ZM692.326 239V237.6L694.206 237.32C694.633 237.24 694.913 237.08 695.046 236.84C695.18 236.573 695.246 236.093 695.246 235.4V222.84C695.246 221.907 695.166 221.28 695.006 220.96C694.846 220.64 694.473 220.453 693.886 220.4L691.966 220.16L692.166 218.76L698.526 218.32L698.886 218.6L699.046 222.32H699.126C699.793 220.96 700.753 219.907 702.006 219.16C703.26 218.413 704.606 218.04 706.046 218.04C707.46 218.04 708.646 218.307 709.606 218.84C710.566 219.347 711.286 220.12 711.766 221.16C712.246 222.173 712.486 223.427 712.486 224.92V235.68C712.486 236.293 712.566 236.707 712.726 236.92C712.886 237.133 713.22 237.28 713.726 237.36L715.526 237.6V239H705.486V237.64L707.166 237.4C707.673 237.293 707.993 237.133 708.126 236.92C708.286 236.707 708.366 236.307 708.366 235.72V225.56C708.366 224.307 708.246 223.32 708.006 222.6C707.766 221.853 707.366 221.32 706.806 221C706.273 220.68 705.526 220.52 704.566 220.52C703.553 220.52 702.646 220.747 701.846 221.2C701.073 221.627 700.46 222.253 700.006 223.08C699.58 223.88 699.366 224.84 699.366 225.96V235.56C699.366 236.147 699.433 236.56 699.566 236.8C699.7 237.04 699.966 237.2 700.366 237.28L702.366 237.64V239H692.326ZM735.281 239.56C734.134 239.56 733.161 239.36 732.361 238.96C731.587 238.533 731.001 237.88 730.601 237C730.201 236.12 730.001 234.987 730.001 233.6V220.44H727.001V218.96C727.987 218.853 728.787 218.573 729.401 218.12C730.041 217.667 730.534 216.96 730.881 216C731.227 215.04 731.454 213.773 731.561 212.2L733.721 211.92L734.161 212.16V218.6H740.161V220.44H734.161V233.2C734.161 234.373 734.361 235.253 734.761 235.84C735.187 236.4 735.894 236.68 736.881 236.68C737.547 236.68 738.187 236.56 738.801 236.32C739.441 236.08 740.054 235.72 740.641 235.24L741.361 236.32C740.534 237.36 739.614 238.16 738.601 238.72C737.614 239.28 736.507 239.56 735.281 239.56ZM763.062 239.56C761.062 239.56 759.315 239.147 757.822 238.32C756.355 237.467 755.222 236.28 754.422 234.76C753.622 233.213 753.222 231.373 753.222 229.24C753.222 226.893 753.649 224.893 754.502 223.24C755.355 221.56 756.555 220.28 758.102 219.4C759.675 218.493 761.515 218.04 763.622 218.04C765.569 218.04 767.262 218.453 768.702 219.28C770.142 220.08 771.249 221.253 772.022 222.8C772.822 224.32 773.222 226.147 773.222 228.28C773.222 230.573 772.795 232.573 771.942 234.28C771.115 235.96 769.942 237.267 768.422 238.2C766.902 239.107 765.115 239.56 763.062 239.56ZM763.662 237.72C764.755 237.72 765.675 237.413 766.422 236.8C767.195 236.187 767.769 235.253 768.142 234C768.515 232.747 768.702 231.147 768.702 229.2C768.702 227.653 768.569 226.293 768.302 225.12C768.062 223.92 767.689 222.933 767.182 222.16C766.675 221.387 766.062 220.813 765.342 220.44C764.649 220.04 763.849 219.84 762.942 219.84C761.822 219.84 760.875 220.133 760.102 220.72C759.329 221.28 758.729 222.173 758.302 223.4C757.902 224.6 757.702 226.147 757.702 228.04C757.702 230.2 757.942 232 758.422 233.44C758.929 234.853 759.622 235.92 760.502 236.64C761.382 237.36 762.435 237.72 763.662 237.72Z" fill="black" fill-opacity="0.25"/>
<g opacity="0.8">
<path d="M337.524 287.344C336.588 287.128 335.748 286.996 334.776 286.996C332.712 286.996 331.692 287.596 331.692 290.272V291.508H337.104V293.668H331.692V301.84H335.856V304H325.896V301.84H329.028V293.668H325.176V291.508H329.028V290.692C329.028 286.276 331.032 284.668 334.68 284.668C335.7 284.668 336.636 284.8 337.524 285.052V287.344ZM348.375 291.22C351.483 291.22 353.355 292.24 353.355 295.156V301.132C353.355 301.984 353.655 302.2 354.735 302.068V304C354.123 304.168 353.559 304.252 353.043 304.252C351.459 304.252 350.955 303.472 350.859 302.464H350.595C349.647 303.412 348.363 304.288 346.467 304.288C344.223 304.288 342.771 303.028 342.771 300.928C342.771 297.424 346.779 296.956 350.691 297.004V295.3C350.691 293.512 349.659 293.068 348.171 293.08C346.707 293.08 345.639 293.548 345.627 295L345.615 295.504H343.191V294.868C343.191 292.732 344.643 291.22 348.375 291.22ZM345.543 300.58C345.543 301.696 346.371 302.32 347.739 302.32C348.867 302.32 349.815 301.888 350.691 301.252V298.492C350.355 298.456 350.019 298.432 349.683 298.432C347.079 298.432 345.543 299.056 345.543 300.58ZM366.078 291.22C369.426 291.22 371.322 292.444 371.346 294.952L368.934 295.132C368.79 293.812 367.83 293.152 365.898 293.152C364.158 293.152 363.102 293.668 363.102 294.712C363.102 295.72 364.122 296.092 366.762 296.668C369.834 297.328 371.55 298.048 371.55 300.328C371.55 302.728 369.618 304.276 365.874 304.276C362.418 304.276 360.522 303.256 359.994 300.4L362.442 300.1C362.946 302.02 364.278 302.296 366.006 302.296C368.07 302.296 368.874 301.516 368.874 300.628C368.874 299.608 367.818 299.26 365.034 298.66C362.202 298.06 360.558 297.136 360.558 294.928C360.558 292.648 362.31 291.22 366.078 291.22ZM380.456 299.92V293.668H377.024V291.508H380.456V287.764H383.12V291.508H388.544V293.668H383.12V300.028C383.12 301.564 383.84 302.2 384.92 302.2C386.036 302.2 386.732 301.516 386.732 300.04V299.368H388.676V299.908C388.676 302.812 387.392 304.276 384.548 304.276C381.824 304.276 380.456 302.968 380.456 299.92Z" fill="#40A02B"/>
<path d="M406.452 298.396C405.132 298.396 404.064 297.52 404.064 296.08C404.064 294.628 405.132 293.776 406.452 293.776C407.76 293.776 408.816 294.628 408.816 296.08C408.816 297.52 407.76 298.396 406.452 298.396Z" fill="#BAC2DE"/>
<path d="M423.836 304V301.84H428.108L428.12 287.776H423.848V285.64L430.448 285.352L430.784 285.676L430.772 301.84H435.044V304H423.836ZM440.591 297.736C440.591 293.452 443.159 291.22 446.987 291.22C450.539 291.22 452.615 293.08 452.615 296.824V297.964H443.303C443.375 300.736 444.659 302.152 446.891 302.152C448.319 302.152 449.423 301.576 449.987 300.28L452.567 300.676C451.703 303.148 449.519 304.288 446.879 304.288C443.159 304.288 440.591 302.044 440.591 297.736ZM443.435 296.284H450.011C450.011 294.256 448.715 293.344 446.903 293.344C445.079 293.344 443.819 294.292 443.435 296.284ZM463.658 291.22C466.766 291.22 468.638 292.24 468.638 295.156V301.132C468.638 301.984 468.938 302.2 470.018 302.068V304C469.406 304.168 468.842 304.252 468.326 304.252C466.742 304.252 466.238 303.472 466.142 302.464H465.878C464.93 303.412 463.646 304.288 461.75 304.288C459.506 304.288 458.054 303.028 458.054 300.928C458.054 297.424 462.062 296.956 465.974 297.004V295.3C465.974 293.512 464.942 293.068 463.454 293.08C461.99 293.08 460.922 293.548 460.91 295L460.898 295.504H458.474V294.868C458.474 292.732 459.926 291.22 463.658 291.22ZM460.826 300.58C460.826 301.696 461.654 302.32 463.022 302.32C464.15 302.32 465.098 301.888 465.974 301.252V298.492C465.638 298.456 465.302 298.432 464.966 298.432C462.362 298.432 460.826 299.056 460.826 300.58ZM486.652 304H483.988V295.672C483.988 293.86 483.064 293.38 481.912 293.38C480.592 293.38 479.5 294.028 478.588 295V304H475.924V291.508H478.216L478.408 293.32H478.756C479.824 292.18 481.108 291.22 483.148 291.22C485.344 291.22 486.652 292.324 486.652 294.976V304Z" fill="#179299"/>
<path d="M504.452 298.396C503.132 298.396 502.064 297.52 502.064 296.08C502.064 294.628 503.132 293.776 504.452 293.776C505.76 293.776 506.816 294.628 506.816 296.08C506.816 297.52 505.76 298.396 504.452 298.396Z" fill="#BAC2DE"/>
<path d="M521.836 304V301.84H526.108V293.644H521.836V291.508L528.448 291.22L528.772 291.544V301.84H533.044V304H521.836ZM525.088 286.996C525.088 285.928 525.856 285.28 526.96 285.28C528.076 285.28 528.832 285.928 528.832 286.996C528.832 288.064 528.076 288.736 526.96 288.736C525.856 288.736 525.088 288.064 525.088 286.996ZM544.495 286.204C548.107 286.204 550.135 287.812 550.135 290.752C550.135 293.26 548.551 294.472 546.775 294.976C548.767 295.372 550.591 296.428 550.591 299.296C550.591 302.392 548.395 304.288 544.591 304.288C540.787 304.288 538.651 302.548 538.591 299.116L541.159 298.876C541.423 300.976 542.503 302.02 544.555 302.02C546.835 302.02 547.795 300.82 547.795 299.248C547.795 296.956 545.803 296.164 543.247 296.164H542.947V294.088H543.247C545.875 294.088 547.471 292.924 547.471 290.992C547.471 289.372 546.415 288.412 544.567 288.412C542.827 288.412 541.711 289.276 541.471 291.316L538.975 291.076C539.059 287.596 541.339 286.204 544.495 286.204ZM579.36 291.22C582.708 291.22 584.604 292.444 584.628 294.952L582.216 295.132C582.072 293.812 581.112 293.152 579.18 293.152C577.44 293.152 576.384 293.668 576.384 294.712C576.384 295.72 577.404 296.092 580.044 296.668C583.116 297.328 584.832 298.048 584.832 300.328C584.832 302.728 582.9 304.276 579.156 304.276C575.7 304.276 573.804 303.256 573.276 300.4L575.724 300.1C576.228 302.02 577.56 302.296 579.288 302.296C581.352 302.296 582.156 301.516 582.156 300.628C582.156 299.608 581.1 299.26 578.316 298.66C575.484 298.06 573.84 297.136 573.84 294.928C573.84 292.648 575.592 291.22 579.36 291.22ZM593.739 299.92V293.668H590.307V291.508H593.739V287.764H596.403V291.508H601.827V293.668H596.403V300.028C596.403 301.564 597.123 302.2 598.203 302.2C599.319 302.2 600.015 301.516 600.015 300.04V299.368H601.959V299.908C601.959 302.812 600.675 304.276 597.831 304.276C595.107 304.276 593.739 302.968 593.739 299.92ZM607.398 291.508H610.254L614.118 300.652H614.286L617.67 291.508H620.346L615.63 303.592C614.418 306.712 612.846 308.848 609.426 308.848C608.862 308.848 608.382 308.788 607.926 308.692V306.316C608.418 306.436 608.922 306.508 609.486 306.508C611.454 306.508 612.246 305.548 612.642 304.492L612.81 304L607.398 291.508ZM625.533 304V301.84H629.805L629.817 287.776H625.545V285.64L632.145 285.352L632.481 285.676L632.469 301.84H636.741V304H625.533ZM642.288 297.736C642.288 293.452 644.856 291.22 648.684 291.22C652.236 291.22 654.312 293.08 654.312 296.824V297.964H645C645.072 300.736 646.356 302.152 648.588 302.152C650.016 302.152 651.12 301.576 651.684 300.28L654.264 300.676C653.4 303.148 651.216 304.288 648.576 304.288C644.856 304.288 642.288 302.044 642.288 297.736ZM645.132 296.284H651.708C651.708 294.256 650.412 293.344 648.6 293.344C646.776 293.344 645.516 294.292 645.132 296.284Z" fill="#04A5E5"/>
<path d="M671.452 298.396C670.132 298.396 669.064 297.52 669.064 296.08C669.064 294.628 670.132 293.776 671.452 293.776C672.76 293.776 673.816 294.628 673.816 296.08C673.816 297.52 672.76 298.396 671.452 298.396Z" fill="#BAC2DE"/>
<path d="M694.116 291.508L694.296 293.32H694.644C695.856 291.952 697.056 291.22 699.168 291.22C699.624 291.22 700.008 291.256 700.38 291.34V293.848C697.752 293.848 696.252 294.004 694.488 295.084V301.84H698.652V304H688.692V301.84H691.824V293.668H688.692V291.508H694.116ZM706.119 304V301.84H710.391V293.644H706.119V291.508L712.731 291.22L713.055 291.544V301.84H717.327V304H706.119ZM709.371 286.996C709.371 285.928 710.139 285.28 711.243 285.28C712.359 285.28 713.115 285.928 713.115 286.996C713.115 288.064 712.359 288.736 711.243 288.736C710.139 288.736 709.371 288.064 709.371 286.996ZM734.982 300.136C734.274 303.028 731.898 304.288 729.114 304.288C725.382 304.288 722.874 302.044 722.874 297.736C722.874 293.308 725.55 291.22 729.246 291.22C732.354 291.22 734.682 292.66 734.982 295.708L732.378 295.936C732.102 294.184 730.89 293.344 729.174 293.344C726.822 293.344 725.598 294.892 725.598 297.736C725.598 300.724 726.942 302.152 729.138 302.152C730.842 302.152 731.946 301.3 732.414 299.764L734.982 300.136ZM745.94 291.22C749.048 291.22 750.92 292.24 750.92 295.156V301.132C750.92 301.984 751.22 302.2 752.3 302.068V304C751.688 304.168 751.124 304.252 750.608 304.252C749.024 304.252 748.52 303.472 748.424 302.464H748.16C747.212 303.412 745.928 304.288 744.032 304.288C741.788 304.288 740.336 303.028 740.336 300.928C740.336 297.424 744.344 296.956 748.256 297.004V295.3C748.256 293.512 747.224 293.068 745.736 293.08C744.272 293.08 743.204 293.548 743.192 295L743.18 295.504H740.756V294.868C740.756 292.732 742.208 291.22 745.94 291.22ZM743.108 300.58C743.108 301.696 743.936 302.32 745.304 302.32C746.432 302.32 747.38 301.888 748.256 301.252V298.492C747.92 298.456 747.584 298.432 747.248 298.432C744.644 298.432 743.108 299.056 743.108 300.58ZM769.703 297.724C769.703 301.684 767.999 304.288 764.807 304.288C762.995 304.288 761.771 303.448 761.039 302.392H760.691L760.499 304H758.207V285.64H760.871V293.116H761.027C761.867 292.06 763.103 291.22 764.903 291.22C768.083 291.22 769.703 293.836 769.703 297.724ZM760.871 300.94C761.795 301.744 762.743 302.056 763.715 302.056C765.827 302.056 766.991 300.664 766.991 297.724C766.991 294.844 765.887 293.452 763.739 293.452C762.755 293.452 761.795 293.764 760.871 294.58V300.94ZM775.25 304V301.84H779.522L779.534 287.776H775.262V285.64L781.862 285.352L782.198 285.676L782.186 301.84H786.458V304H775.25ZM792.005 297.736C792.005 293.452 794.573 291.22 798.401 291.22C801.953 291.22 804.029 293.08 804.029 296.824V297.964H794.717C794.789 300.736 796.073 302.152 798.305 302.152C799.733 302.152 800.837 301.576 801.401 300.28L803.981 300.676C803.117 303.148 800.933 304.288 798.293 304.288C794.573 304.288 792.005 302.044 792.005 297.736ZM794.849 296.284H801.425C801.425 294.256 800.129 293.344 798.317 293.344C796.493 293.344 795.233 294.292 794.849 296.284Z" fill="#209FB5"/>
<path d="M821.452 298.396C820.132 298.396 819.064 297.52 819.064 296.08C819.064 294.628 820.132 293.776 821.452 293.776C822.76 293.776 823.816 294.628 823.816 296.08C823.816 297.52 822.76 298.396 821.452 298.396Z" fill="#BAC2DE"/>
<path d="M849.804 304H847.14V295.672C847.14 293.86 846.216 293.38 845.064 293.38C843.744 293.38 842.652 294.028 841.74 295V304H839.076V291.508H841.368L841.56 293.32H841.908C842.976 292.18 844.26 291.22 846.3 291.22C848.496 291.22 849.804 292.324 849.804 294.976V304ZM867.855 297.784C867.855 302.224 865.095 304.288 861.723 304.288C858.363 304.288 855.591 302.224 855.591 297.784C855.591 293.344 858.363 291.22 861.723 291.22C865.095 291.22 867.855 293.344 867.855 297.784ZM858.303 297.784C858.303 300.892 859.731 302.152 861.723 302.152C863.727 302.152 865.143 300.892 865.143 297.784C865.143 294.664 863.727 293.344 861.723 293.344C859.731 293.344 858.303 294.664 858.303 297.784ZM878.682 291.508L878.862 293.32H879.21C880.422 291.952 881.622 291.22 883.734 291.22C884.19 291.22 884.574 291.256 884.946 291.34V293.848C882.318 293.848 880.818 294.004 879.054 295.084V301.84H883.218V304H873.258V301.84H876.39V293.668H873.258V291.508H878.682ZM890.684 304V301.84H894.956V293.644H890.684V291.508L897.296 291.22L897.62 291.544V301.84H901.892V304H890.684ZM893.936 286.996C893.936 285.928 894.704 285.28 895.808 285.28C896.924 285.28 897.68 285.928 897.68 286.996C897.68 288.064 896.924 288.736 895.808 288.736C894.704 288.736 893.936 288.064 893.936 286.996ZM910.871 304H908.207V285.64H910.871V296.26H913.115L916.991 291.508H919.979L915.119 297.292V297.448L920.399 304H917.255L912.731 298.396H910.871V304ZM925.25 304V301.84H929.522V293.644H925.25V291.508L931.862 291.22L932.186 291.544V301.84H936.458V304H925.25ZM928.502 286.996C928.502 285.928 929.27 285.28 930.374 285.28C931.49 285.28 932.246 285.928 932.246 286.996C932.246 288.064 931.49 288.736 930.374 288.736C929.27 288.736 928.502 288.064 928.502 286.996ZM945.305 299.92V293.668H941.873V291.508H945.305V287.764H947.969V291.508H953.393V293.668H947.969V300.028C947.969 301.564 948.689 302.2 949.769 302.2C950.885 302.2 951.581 301.516 951.581 300.04V299.368H953.525V299.908C953.525 302.812 952.241 304.276 949.397 304.276C946.673 304.276 945.305 302.968 945.305 299.92Z" fill="#1E66F5"/>
</g>
</svg>
