<svg width="1280" height="360" viewBox="0 0 1280 360" fill="none" xmlns="http://www.w3.org/2000/svg">
<path d="M580.545 106.614V48.4319H594V52.8865H585.636V102.159H594V106.614H580.545Z" fill="#32C572"/>
<path d="M620.52 92.1592V88.9272L624.84 87.1672V68.5752C624.84 64.5112 622.728 63.1032 619.912 63.1032C617.704 63.1032 614.696 63.8072 611.272 65.6952V87.2312L615.496 88.9272V92.1592H601V88.9272L605.32 87.1672V65.2472L599.72 64.3832V60.8312L610.088 58.4312L610.92 58.7832V62.4632C615.112 59.8072 618.952 58.2712 622.696 58.2712C628.168 58.2712 630.792 61.3752 630.792 67.3272V87.2312L635.016 88.9272V92.1592H620.52Z" fill="#E6EBF9"/>
<path d="M652.636 48.4319V106.614H639.182V102.159H647.545V52.8865H639.182V48.4319H652.636ZM667.733 106.614V48.4319H681.188V52.8865H672.824V102.159H681.188V106.614H667.733ZM699.011 48.4319V106.614H685.557V102.159H693.92V52.8865H685.557V48.4319H699.011Z" fill="#32C572"/>
<path d="M585.858 138.886H594.221V143.341H580.767V120.841H585.858V138.886Z" fill="#32C572"/>
<path d="M652.858 143.341H639.403V138.886H647.767V120.841H652.858V143.341Z" fill="#32C572"/>
<path d="M673.045 138.886H681.408V143.341H667.954V120.841H673.045V138.886Z" fill="#32C572"/>
<path d="M699.233 143.341H685.778V138.886H694.142V120.841H699.233V143.341Z" fill="#32C572"/>
<path d="M594.221 119.613H585.858L585.858 120.841H580.767L580.767 115.159H594.221V119.613Z" fill="#32C572"/>
<path d="M652.858 120.841H647.767L647.767 119.613H639.403V115.159H652.858L652.858 120.841Z" fill="#32C572"/>
<path d="M681.409 119.613H673.046L673.045 120.841H667.954L667.955 115.159H681.409V119.613Z" fill="#32C572"/>
<path d="M699.233 120.841H694.142L694.142 119.613H685.778V115.159H699.233L699.233 120.841Z" fill="#32C572"/>
<path d="M505.92 239V237.6L507.8 237.32C508.227 237.24 508.507 237.08 508.64 236.84C508.773 236.573 508.84 236.093 508.84 235.4V222.84C508.84 221.907 508.76 221.28 508.6 220.96C508.44 220.64 508.067 220.453 507.48 220.4L505.56 220.16L505.76 218.76L512.12 218.32L512.48 218.6L512.64 222.32H512.72C513.387 220.96 514.347 219.907 515.6 219.16C516.853 218.413 518.2 218.04 519.64 218.04C521.053 218.04 522.24 218.307 523.2 218.84C524.16 219.347 524.88 220.12 525.36 221.16C525.84 222.173 526.08 223.427 526.08 224.92V235.68C526.08 236.293 526.16 236.707 526.32 236.92C526.48 237.133 526.813 237.28 527.32 237.36L529.12 237.6V239H519.08V237.64L520.76 237.4C521.267 237.293 521.587 237.133 521.72 236.92C521.88 236.707 521.96 236.307 521.96 235.72V225.56C521.96 224.307 521.84 223.32 521.6 222.6C521.36 221.853 520.96 221.32 520.4 221C519.867 220.68 519.12 220.52 518.16 220.52C517.147 220.52 516.24 220.747 515.44 221.2C514.667 221.627 514.053 222.253 513.6 223.08C513.173 223.88 512.96 224.84 512.96 225.96V235.56C512.96 236.147 513.027 236.56 513.16 236.8C513.293 237.04 513.56 237.2 513.96 237.28L515.96 237.64V239H505.92ZM551.656 239.56C549.656 239.56 547.909 239.147 546.416 238.32C544.949 237.467 543.816 236.28 543.016 234.76C542.216 233.213 541.816 231.373 541.816 229.24C541.816 226.893 542.242 224.893 543.096 223.24C543.949 221.56 545.149 220.28 546.696 219.4C548.269 218.493 550.109 218.04 552.216 218.04C554.162 218.04 555.856 218.453 557.296 219.28C558.736 220.08 559.842 221.253 560.616 222.8C561.416 224.32 561.816 226.147 561.816 228.28C561.816 230.573 561.389 232.573 560.536 234.28C559.709 235.96 558.536 237.267 557.016 238.2C555.496 239.107 553.709 239.56 551.656 239.56ZM552.256 237.72C553.349 237.72 554.269 237.413 555.016 236.8C555.789 236.187 556.362 235.253 556.736 234C557.109 232.747 557.296 231.147 557.296 229.2C557.296 227.653 557.162 226.293 556.896 225.12C556.656 223.92 556.282 222.933 555.776 222.16C555.269 221.387 554.656 220.813 553.936 220.44C553.242 220.04 552.442 219.84 551.536 219.84C550.416 219.84 549.469 220.133 548.696 220.72C547.922 221.28 547.322 222.173 546.896 223.4C546.496 224.6 546.296 226.147 546.296 228.04C546.296 230.2 546.536 232 547.016 233.44C547.522 234.853 548.216 235.92 549.096 236.64C549.976 237.36 551.029 237.72 552.256 237.72ZM575.139 239V237.6L577.019 237.28C577.445 237.2 577.725 237.04 577.859 236.8C577.992 236.533 578.059 236.053 578.059 235.36V222.88C578.059 221.947 577.979 221.32 577.819 221C577.659 220.653 577.285 220.453 576.699 220.4L574.779 220.2L574.979 218.76L581.259 218.32L581.619 218.6L581.899 222.36H581.979C582.645 220.973 583.499 219.907 584.539 219.16C585.579 218.413 586.699 218.04 587.899 218.04C589.179 218.04 590.192 218.387 590.939 219.08C591.685 219.747 592.059 220.64 592.059 221.76C592.059 222.427 591.952 223 591.739 223.48C591.552 223.933 591.245 224.293 590.819 224.56C590.419 224.8 589.912 224.92 589.299 224.92C588.499 224.92 587.885 224.747 587.459 224.4C587.059 224.053 586.859 223.613 586.859 223.08C586.859 222.84 586.899 222.6 586.979 222.36C587.059 222.12 587.179 221.84 587.339 221.52C587.499 221.2 587.699 220.84 587.939 220.44C587.325 220.2 586.672 220.173 585.979 220.36C585.312 220.547 584.685 220.92 584.099 221.48C583.539 222.013 583.072 222.693 582.699 223.52C582.352 224.32 582.179 225.187 582.179 226.12V235.44C582.179 236.08 582.245 236.52 582.379 236.76C582.512 236.973 582.792 237.107 583.219 237.16L586.539 237.6V239H575.139ZM604.076 239V237.56L606.236 237.24C606.716 237.187 607.022 237.027 607.156 236.76C607.289 236.493 607.356 236 607.356 235.28V222.96C607.356 222 607.276 221.36 607.116 221.04C606.956 220.72 606.569 220.52 605.956 220.44L604.076 220.24L604.236 218.76L611.116 218.44L611.516 218.64V235.44C611.516 236 611.582 236.427 611.716 236.72C611.849 236.987 612.169 237.16 612.676 237.24L614.836 237.6V239H604.076ZM608.876 214.28C608.049 214.28 607.369 214.027 606.836 213.52C606.302 213.013 606.036 212.347 606.036 211.52C606.036 210.72 606.302 210.067 606.836 209.56C607.369 209.027 608.049 208.76 608.876 208.76C609.756 208.76 610.449 209.013 610.956 209.52C611.489 210.027 611.756 210.693 611.756 211.52C611.756 212.32 611.489 212.987 610.956 213.52C610.422 214.027 609.729 214.28 608.876 214.28ZM630.251 239.52L629.251 239.28V212.68C629.251 211.8 629.171 211.2 629.011 210.88C628.851 210.533 628.398 210.32 627.651 210.24L625.891 210.04L626.051 208.56L633.011 208.36L633.411 208.68V221.56L633.451 221.72C633.984 220.84 634.571 220.133 635.211 219.6C635.878 219.04 636.611 218.64 637.411 218.4C638.238 218.16 639.118 218.04 640.051 218.04C641.704 218.04 643.118 218.427 644.291 219.2C645.491 219.973 646.411 221.093 647.051 222.56C647.691 224.027 648.011 225.853 648.011 228.04C648.011 230.44 647.638 232.507 646.891 234.24C646.144 235.947 645.051 237.267 643.611 238.2C642.198 239.107 640.478 239.56 638.451 239.56C637.331 239.56 636.264 239.4 635.251 239.08C634.238 238.787 633.331 238.36 632.531 237.8L630.251 239.52ZM638.131 237.68C639.278 237.68 640.251 237.373 641.051 236.76C641.878 236.12 642.504 235.147 642.931 233.84C643.358 232.507 643.571 230.8 643.571 228.72C643.571 226.8 643.384 225.24 643.011 224.04C642.638 222.813 642.078 221.907 641.331 221.32C640.611 220.733 639.691 220.44 638.571 220.44C637.531 220.44 636.611 220.667 635.811 221.12C635.038 221.547 634.438 222.173 634.011 223C633.611 223.827 633.411 224.84 633.411 226.04V235.84C633.998 236.373 634.691 236.813 635.491 237.16C636.318 237.507 637.198 237.68 638.131 237.68ZM671.178 239.56C669.258 239.56 667.578 239.147 666.138 238.32C664.725 237.493 663.632 236.307 662.858 234.76C662.085 233.187 661.698 231.32 661.698 229.16C661.698 226.84 662.112 224.853 662.938 223.2C663.765 221.52 664.925 220.24 666.418 219.36C667.912 218.48 669.645 218.04 671.618 218.04C673.112 218.04 674.418 218.333 675.538 218.92C676.658 219.507 677.525 220.347 678.138 221.44C678.778 222.507 679.098 223.773 679.098 225.24C679.098 225.747 679.058 226.267 678.978 226.8C678.925 227.333 678.845 227.893 678.738 228.48H666.138C666.138 230.24 666.392 231.72 666.898 232.92C667.432 234.093 668.165 234.987 669.098 235.6C670.032 236.187 671.125 236.48 672.378 236.48C673.472 236.48 674.498 236.28 675.458 235.88C676.445 235.48 677.392 234.853 678.298 234L679.338 235C678.352 236.52 677.152 237.667 675.738 238.44C674.352 239.187 672.832 239.56 671.178 239.56ZM666.138 226.8H674.858C674.885 226.533 674.898 226.24 674.898 225.92C674.925 225.6 674.938 225.267 674.938 224.92C674.938 223.053 674.632 221.707 674.018 220.88C673.405 220.053 672.472 219.64 671.218 219.64C670.232 219.64 669.378 219.893 668.658 220.4C667.965 220.907 667.405 221.693 666.978 222.76C666.552 223.8 666.272 225.147 666.138 226.8ZM692.326 239V237.6L694.206 237.32C694.633 237.24 694.913 237.08 695.046 236.84C695.18 236.573 695.246 236.093 695.246 235.4V222.84C695.246 221.907 695.166 221.28 695.006 220.96C694.846 220.64 694.473 220.453 693.886 220.4L691.966 220.16L692.166 218.76L698.526 218.32L698.886 218.6L699.046 222.32H699.126C699.793 220.96 700.753 219.907 702.006 219.16C703.26 218.413 704.606 218.04 706.046 218.04C707.46 218.04 708.646 218.307 709.606 218.84C710.566 219.347 711.286 220.12 711.766 221.16C712.246 222.173 712.486 223.427 712.486 224.92V235.68C712.486 236.293 712.566 236.707 712.726 236.92C712.886 237.133 713.22 237.28 713.726 237.36L715.526 237.6V239H705.486V237.64L707.166 237.4C707.673 237.293 707.993 237.133 708.126 236.92C708.286 236.707 708.366 236.307 708.366 235.72V225.56C708.366 224.307 708.246 223.32 708.006 222.6C707.766 221.853 707.366 221.32 706.806 221C706.273 220.68 705.526 220.52 704.566 220.52C703.553 220.52 702.646 220.747 701.846 221.2C701.073 221.627 700.46 222.253 700.006 223.08C699.58 223.88 699.366 224.84 699.366 225.96V235.56C699.366 236.147 699.433 236.56 699.566 236.8C699.7 237.04 699.966 237.2 700.366 237.28L702.366 237.64V239H692.326ZM735.281 239.56C734.134 239.56 733.161 239.36 732.361 238.96C731.587 238.533 731.001 237.88 730.601 237C730.201 236.12 730.001 234.987 730.001 233.6V220.44H727.001V218.96C727.987 218.853 728.787 218.573 729.401 218.12C730.041 217.667 730.534 216.96 730.881 216C731.227 215.04 731.454 213.773 731.561 212.2L733.721 211.92L734.161 212.16V218.6H740.161V220.44H734.161V233.2C734.161 234.373 734.361 235.253 734.761 235.84C735.187 236.4 735.894 236.68 736.881 236.68C737.547 236.68 738.187 236.56 738.801 236.32C739.441 236.08 740.054 235.72 740.641 235.24L741.361 236.32C740.534 237.36 739.614 238.16 738.601 238.72C737.614 239.28 736.507 239.56 735.281 239.56ZM763.062 239.56C761.062 239.56 759.315 239.147 757.822 238.32C756.355 237.467 755.222 236.28 754.422 234.76C753.622 233.213 753.222 231.373 753.222 229.24C753.222 226.893 753.649 224.893 754.502 223.24C755.355 221.56 756.555 220.28 758.102 219.4C759.675 218.493 761.515 218.04 763.622 218.04C765.569 218.04 767.262 218.453 768.702 219.28C770.142 220.08 771.249 221.253 772.022 222.8C772.822 224.32 773.222 226.147 773.222 228.28C773.222 230.573 772.795 232.573 771.942 234.28C771.115 235.96 769.942 237.267 768.422 238.2C766.902 239.107 765.115 239.56 763.062 239.56ZM763.662 237.72C764.755 237.72 765.675 237.413 766.422 236.8C767.195 236.187 767.769 235.253 768.142 234C768.515 232.747 768.702 231.147 768.702 229.2C768.702 227.653 768.569 226.293 768.302 225.12C768.062 223.92 767.689 222.933 767.182 222.16C766.675 221.387 766.062 220.813 765.342 220.44C764.649 220.04 763.849 219.84 762.942 219.84C761.822 219.84 760.875 220.133 760.102 220.72C759.329 221.28 758.729 222.173 758.302 223.4C757.902 224.6 757.702 226.147 757.702 228.04C757.702 230.2 757.942 232 758.422 233.44C758.929 234.853 759.622 235.92 760.502 236.64C761.382 237.36 762.435 237.72 763.662 237.72Z" fill="#BAC2DE"/>
<g opacity="0.8">
<path d="M420.952 287.092C420.028 286.876 419.2 286.744 418.204 286.744C416.116 286.744 414.904 287.32 414.904 290.284V291.676H420.508V293.512H414.904V302.164H419.272V304H409.372V302.164H412.636V293.512H408.676V291.676H412.636V290.488C412.636 286.216 414.712 284.728 418.144 284.728C419.116 284.728 420.052 284.848 420.952 285.112V287.092ZM431.935 291.388C434.947 291.388 436.711 292.384 436.711 295.288V301.396C436.711 302.284 437.047 302.512 438.175 302.344V304C437.611 304.168 437.095 304.24 436.639 304.24C435.151 304.24 434.659 303.448 434.575 302.464H434.359C433.363 303.364 432.103 304.288 430.111 304.288C427.831 304.288 426.379 303.064 426.379 300.964C426.379 297.52 430.255 297.076 434.443 297.1V295.42C434.443 293.44 433.327 292.996 431.695 293.008C430.135 293.02 428.947 293.464 428.923 295.108V295.636H426.799V294.988C426.799 292.876 428.251 291.388 431.935 291.388ZM428.755 300.688C428.755 301.912 429.643 302.572 431.131 302.572C432.427 302.572 433.435 302.068 434.443 301.336V298.432C434.059 298.396 433.663 298.372 433.303 298.372C430.471 298.372 428.755 298.996 428.755 300.688ZM449.554 291.388C452.806 291.388 454.678 292.564 454.774 295.06L452.71 295.204C452.554 293.8 451.474 293.08 449.398 293.08C447.526 293.08 446.35 293.632 446.35 294.796C446.35 295.852 447.346 296.284 450.094 296.848C453.382 297.52 454.918 298.276 454.918 300.424C454.918 302.74 453.082 304.276 449.458 304.276C446.05 304.276 444.106 303.304 443.554 300.424L445.642 300.16C446.218 302.32 447.79 302.524 449.566 302.524C451.774 302.524 452.65 301.648 452.65 300.676C452.65 299.596 451.618 299.212 448.69 298.612C445.726 298 444.178 297.112 444.178 295C444.178 292.804 445.846 291.388 449.554 291.388ZM464.1 299.884V293.512H460.524V291.676H464.1V287.812H466.38V291.676H472.044V293.512H466.38V300.028C466.38 301.732 467.124 302.488 468.384 302.488C469.704 302.488 470.412 301.66 470.412 300.028V299.428H472.128V299.872C472.128 302.752 470.964 304.276 468.108 304.276C465.444 304.276 464.1 302.968 464.1 299.884Z" fill="#A6E3A1"/>
<path d="M489.952 298.396C488.632 298.396 487.564 297.52 487.564 296.08C487.564 294.628 488.632 293.776 489.952 293.776C491.26 293.776 492.316 294.628 492.316 296.08C492.316 297.52 491.26 298.396 489.952 298.396Z" fill="#BAC2DE"/>
<path d="M507.432 304V302.164H511.8L511.812 287.44H507.432V285.64L513.78 285.376L514.08 285.652V302.164H518.448V304H507.432ZM524.211 297.82C524.211 293.656 526.695 291.388 530.487 291.388C533.979 291.388 536.019 293.212 536.019 296.836V297.916H526.539C526.575 300.916 528.003 302.428 530.415 302.428C531.987 302.428 533.175 301.792 533.763 300.388L535.971 300.76C535.131 303.064 533.115 304.288 530.403 304.288C526.719 304.288 524.211 302.056 524.211 297.82ZM526.659 296.404H533.799C533.787 294.208 532.347 293.248 530.415 293.248C528.399 293.248 527.055 294.316 526.659 296.404ZM547.218 291.388C550.23 291.388 551.994 292.384 551.994 295.288V301.396C551.994 302.284 552.33 302.512 553.458 302.344V304C552.894 304.168 552.378 304.24 551.922 304.24C550.434 304.24 549.942 303.448 549.858 302.464H549.642C548.646 303.364 547.386 304.288 545.394 304.288C543.114 304.288 541.662 303.064 541.662 300.964C541.662 297.52 545.538 297.076 549.726 297.1V295.42C549.726 293.44 548.61 292.996 546.978 293.008C545.418 293.02 544.23 293.464 544.206 295.108V295.636H542.082V294.988C542.082 292.876 543.534 291.388 547.218 291.388ZM544.038 300.688C544.038 301.912 544.926 302.572 546.414 302.572C547.71 302.572 548.718 302.068 549.726 301.336V298.432C549.342 298.396 548.946 298.372 548.586 298.372C545.754 298.372 544.038 298.996 544.038 300.688ZM569.96 304H567.692V295.78C567.692 293.776 566.648 293.248 565.4 293.248C563.96 293.248 562.808 293.956 561.884 295.024V304H559.616V291.676H561.536L561.74 293.44H562.04C563.012 292.396 564.296 291.388 566.384 291.388C568.58 291.388 569.96 292.504 569.96 295.18V304Z" fill="#94E2D5"/>
<path d="M587.952 298.396C586.632 298.396 585.564 297.52 585.564 296.08C585.564 294.628 586.632 293.776 587.952 293.776C589.26 293.776 590.316 294.628 590.316 296.08C590.316 297.52 589.26 298.396 587.952 298.396Z" fill="#BAC2DE"/>
<path d="M610.424 291.676L610.616 293.428H610.928C612.2 292.108 613.424 291.388 615.584 291.388C616.028 291.388 616.4 291.424 616.772 291.496V293.62C614.036 293.62 612.584 293.8 610.772 295.048V302.164H615.14V304H605.228V302.164H608.504V293.512H605.228V291.676H610.424ZM622.715 304V302.164H627.083V293.476H622.715V291.676L629.063 291.4L629.363 291.688V302.164H633.731V304H622.715ZM626.099 287.02C626.099 286.06 626.783 285.484 627.779 285.484C628.763 285.484 629.447 286.06 629.447 287.02C629.447 287.98 628.763 288.568 627.779 288.568C626.783 288.568 626.099 287.98 626.099 287.02ZM651.386 300.244C650.702 302.968 648.458 304.288 645.65 304.288C642.014 304.288 639.494 302.08 639.494 297.808C639.494 293.512 642.062 291.388 645.77 291.388C648.782 291.388 651.074 292.792 651.386 295.756L649.142 295.948C648.854 294.052 647.51 293.248 645.71 293.248C643.166 293.248 641.834 294.856 641.834 297.808C641.834 300.928 643.322 302.428 645.662 302.428C647.45 302.428 648.686 301.564 649.19 299.896L651.386 300.244ZM662.5 291.388C665.512 291.388 667.276 292.384 667.276 295.288V301.396C667.276 302.284 667.612 302.512 668.74 302.344V304C668.176 304.168 667.66 304.24 667.204 304.24C665.716 304.24 665.224 303.448 665.14 302.464H664.924C663.928 303.364 662.668 304.288 660.676 304.288C658.396 304.288 656.944 303.064 656.944 300.964C656.944 297.52 660.82 297.076 665.008 297.1V295.42C665.008 293.44 663.892 292.996 662.26 293.008C660.7 293.02 659.512 293.464 659.488 295.108V295.636H657.364V294.988C657.364 292.876 658.816 291.388 662.5 291.388ZM659.32 300.688C659.32 301.912 660.208 302.572 661.696 302.572C662.992 302.572 664 302.068 665.008 301.336V298.432C664.624 298.396 664.228 298.372 663.868 298.372C661.036 298.372 659.32 298.996 659.32 300.688ZM686.083 297.82C686.083 301.828 684.259 304.288 681.151 304.288C679.339 304.288 678.115 303.46 677.323 302.368H676.999L676.819 304H674.899V285.64H677.167V293.308H677.311C678.199 292.216 679.459 291.388 681.247 291.388C684.367 291.388 686.083 293.896 686.083 297.82ZM677.167 300.964C678.175 301.996 679.207 302.368 680.287 302.368C682.483 302.368 683.743 300.88 683.743 297.82C683.743 294.832 682.555 293.32 680.323 293.32C679.219 293.32 678.199 293.692 677.167 294.724V300.964ZM691.846 304V302.164H696.214L696.226 287.44H691.846V285.64L698.194 285.376L698.494 285.652V302.164H702.862V304H691.846ZM708.625 297.82C708.625 293.656 711.109 291.388 714.901 291.388C718.393 291.388 720.433 293.212 720.433 296.836V297.916H710.953C710.989 300.916 712.417 302.428 714.829 302.428C716.401 302.428 717.589 301.792 718.177 300.388L720.385 300.76C719.545 303.064 717.529 304.288 714.817 304.288C711.133 304.288 708.625 302.056 708.625 297.82ZM711.073 296.404H718.213C718.201 294.208 716.761 293.248 714.829 293.248C712.813 293.248 711.469 294.316 711.073 296.404Z" fill="#89DCEB"/>
<path d="M737.952 298.396C736.632 298.396 735.564 297.52 735.564 296.08C735.564 294.628 736.632 293.776 737.952 293.776C739.26 293.776 740.316 294.628 740.316 296.08C740.316 297.52 739.26 298.396 737.952 298.396Z" fill="#BAC2DE"/>
<path d="M766.112 304H763.844V295.78C763.844 293.776 762.8 293.248 761.552 293.248C760.112 293.248 758.96 293.956 758.036 295.024V304H755.768V291.676H757.688L757.892 293.44H758.192C759.164 292.396 760.448 291.388 762.536 291.388C764.732 291.388 766.112 292.504 766.112 295.18V304ZM784.235 297.856C784.235 302.176 781.535 304.288 778.223 304.288C774.923 304.288 772.211 302.176 772.211 297.856C772.211 293.548 774.923 291.388 778.223 291.388C781.535 291.388 784.235 293.548 784.235 297.856ZM774.539 297.856C774.539 301 776.063 302.428 778.223 302.428C780.383 302.428 781.895 301 781.895 297.856C781.895 294.712 780.383 293.248 778.223 293.248C776.063 293.248 774.539 294.712 774.539 297.856ZM794.99 291.676L795.182 293.428H795.494C796.766 292.108 797.99 291.388 800.15 291.388C800.594 291.388 800.966 291.424 801.338 291.496V293.62C798.602 293.62 797.15 293.8 795.338 295.048V302.164H799.706V304H789.794V302.164H793.07V293.512H789.794V291.676H794.99ZM807.28 304V302.164H811.648V293.476H807.28V291.676L813.628 291.4L813.928 291.688V302.164H818.296V304H807.28ZM810.664 287.02C810.664 286.06 811.348 285.484 812.344 285.484C813.328 285.484 814.012 286.06 814.012 287.02C814.012 287.98 813.328 288.568 812.344 288.568C811.348 288.568 810.664 287.98 810.664 287.02ZM827.167 304H824.899V285.64H827.167V296.452H829.579L833.743 291.676H836.335L831.379 297.292V297.448L836.839 304H834.091L829.339 298.288H827.167V304ZM841.846 304V302.164H846.214V293.476H841.846V291.676L848.194 291.4L848.494 291.688V302.164H852.862V304H841.846ZM845.23 287.02C845.23 286.06 845.914 285.484 846.91 285.484C847.894 285.484 848.578 286.06 848.578 287.02C848.578 287.98 847.894 288.568 846.91 288.568C845.914 288.568 845.23 287.98 845.23 287.02ZM861.949 299.884V293.512H858.373V291.676H861.949V287.812H864.229V291.676H869.893V293.512H864.229V300.028C864.229 301.732 864.973 302.488 866.233 302.488C867.553 302.488 868.261 301.66 868.261 300.028V299.428H869.977V299.872C869.977 302.752 868.813 304.276 865.957 304.276C863.293 304.276 861.949 302.968 861.949 299.884Z" fill="#74C7EC"/>
</g>
</svg>
